<svg class="img-fluid" id="outputsvg" xmlns="http://www.w3.org/2000/svg" style="transform: matrix(0.769231, 0, 0, 0.769231, -13.8745, -8.67691); transform-origin: 50% 50%; cursor: move; max-height: none; transition: none;" width="928" height="1288" viewBox="0 0 9280 12880"><g id="l1BpMJ0kZRqY3AptyEiMfak" fill="rgb(225,5,20)" style="transform: none;"><g style="transform: none;"><path id="p13nE9CIoF" d="M4041 12475 c-55 -223 -101 -409 -101 -415 0 -7 236 -10 700 -10 464 0 700 3 700 10 0 6 -46 192 -101 415 l-101 405 -498 0 -498 0 -101 -405z"></path><path id="pqMr9B3J9" d="M3682 11889 c-48 -9 -96 -36 -129 -71 -77 -82 -68 -240 18 -312 76 -65 9 -61 1064 -61 782 0 967 3 998 14 190 67 198 334 12 418 -38 17 -98 18 -980 20 -517 0 -959 -3 -983 -8z"></path><path id="p1By44UI7H" d="M3677 11289 c-51 -12 -87 -32 -119 -66 -82 -86 -76 -242 13 -317 77 -65 8 -61 1069 -61 1061 0 992 -4 1069 61 45 37 71 97 71 162 0 91 -42 161 -125 205 l-40 22 -950 2 c-539 1 -966 -3 -988 -8z"></path><path id="p1HP0FICkF" d="M4526 10518 c-4 -51 -13 -201 -21 -333 -53 -831 -157 -1892 -286 -2890 -35 -277 -128 -935 -134 -952 -7 -19 21 -23 178 -23 197 0 825 -31 961 -46 l48 -6 -6 38 c-3 22 -49 462 -101 979 -222 2184 -313 2908 -414 3283 l-12 42 -103 0 -104 0 -6 -92z"></path><path id="pqkHwZIeR" d="M3906 10470 c-207 -82 -446 -244 -591 -402 -112 -123 -444 -594 -692 -983 -457 -717 -937 -1644 -1320 -2545 -420 -988 -766 -2043 -967 -2947 -87 -388 -127 -620 -161 -929 -20 -177 -37 -542 -30 -629 53 -615 491 -1047 1410 -1390 313 -117 596 -197 1060 -299 173 -39 201 -44 505 -91 564 -87 956 -117 1515 -117 548 0 944 31 1505 117 328 51 398 65 805 159 474 109 1046 323 1371 511 425 247 712 593 774 934 41 228 22 715 -45 1116 -268 1622 -1038 3719 -1977 5385 -148 263 -223 390 -418 705 -155 251 -539 805 -655 945 -162 195 -393 361 -639 459 -43 17 -81 30 -83 28 -2 -2 3 -35 11 -73 23 -110 83 -506 121 -804 63 -502 120 -1030 270 -2510 47 -465 88 -855 90 -867 4 -19 12 -23 40 -23 92 0 595 -77 820 -126 528 -115 710 -264 766 -627 94 -608 -533 -1858 -1056 -2106 -105 -50 -169 -64 -265 -59 -179 10 -319 130 -400 340 -94 243 -197 838 -300 1723 -22 193 -42 364 -45 381 l-5 31 -168 12 c-252 17 -732 39 -952 43 l-195 3 -13 -85 c-32 -203 -147 -814 -193 -1030 -116 -545 -246 -1004 -338 -1191 -94 -192 -217 -289 -389 -305 -167 -16 -346 67 -537 248 -422 399 -847 1216 -956 1838 -8 41 -14 140 -13 220 0 119 4 159 22 223 39 137 97 229 190 301 72 54 106 72 211 107 257 87 654 135 1305 159 160 6 291 12 293 14 5 5 70 451 118 811 134 1000 243 2070 305 2978 24 353 24 387 8 387 -7 0 -57 -18 -112 -40z"></path><path id="pU7BEwDw0" d="M3365 5833 c-584 -17 -1088 -76 -1257 -147 -49 -21 -62 -67 -55 -191 20 -335 220 -837 512 -1285 140 -215 314 -414 414 -473 l30 -18 19 38 c76 148 211 662 326 1233 43 214 156 827 156 846 0 2 -12 3 -27 2 -16 -1 -68 -3 -118 -5z"></path><path id="prhmfAPKd" d="M5824 5688 c3 -24 29 -227 56 -453 76 -616 139 -1015 200 -1255 33 -133 46 -170 59 -170 5 0 33 20 63 45 209 178 476 617 606 997 68 198 95 327 96 463 1 142 -10 177 -63 204 -115 59 -480 139 -851 186 -69 9 -135 18 -148 21 -22 4 -23 3 -18 -38z"></path></g></g></svg>